<mxfile host="app.diagrams.net" modified="2021-11-21T01:10:39.412Z" agent="5.0 (Windows NT 6.1; Win64; x64) AppleWebKit/537.36 (KHTML, like Gecko) Chrome/92.0.4515.131 Safari/537.36" etag="Sb6Q8GPrOEiushpEnPRp" version="15.7.3" type="github">
  <diagram id="b9WrctUHTacLMoWQj7Ja" name="Page-1">
    <mxGraphModel dx="2249" dy="800" grid="1" gridSize="10" guides="1" tooltips="1" connect="1" arrows="1" fold="1" page="1" pageScale="1" pageWidth="827" pageHeight="1169" math="0" shadow="0">
      <root>
        <mxCell id="0" />
        <mxCell id="1" parent="0" />
        <mxCell id="wM4qlZ9RKRB5zYmjTJwk-5" value="" style="edgeStyle=orthogonalEdgeStyle;rounded=0;orthogonalLoop=1;jettySize=auto;html=1;" edge="1" parent="1" source="wM4qlZ9RKRB5zYmjTJwk-1" target="wM4qlZ9RKRB5zYmjTJwk-4">
          <mxGeometry relative="1" as="geometry" />
        </mxCell>
        <mxCell id="wM4qlZ9RKRB5zYmjTJwk-1" value="mybatis&lt;br&gt;领域" style="ellipse;whiteSpace=wrap;html=1;" vertex="1" parent="1">
          <mxGeometry x="330" y="340" width="120" height="80" as="geometry" />
        </mxCell>
        <mxCell id="wM4qlZ9RKRB5zYmjTJwk-8" style="edgeStyle=orthogonalEdgeStyle;rounded=0;orthogonalLoop=1;jettySize=auto;html=1;exitX=0.5;exitY=1;exitDx=0;exitDy=0;entryX=0;entryY=0.5;entryDx=0;entryDy=0;" edge="1" parent="1" source="wM4qlZ9RKRB5zYmjTJwk-2" target="wM4qlZ9RKRB5zYmjTJwk-1">
          <mxGeometry relative="1" as="geometry" />
        </mxCell>
        <mxCell id="wM4qlZ9RKRB5zYmjTJwk-2" value="拆分后的问题模式匹配" style="ellipse;whiteSpace=wrap;html=1;" vertex="1" parent="1">
          <mxGeometry x="90" y="270" width="120" height="80" as="geometry" />
        </mxCell>
        <mxCell id="wM4qlZ9RKRB5zYmjTJwk-9" style="edgeStyle=orthogonalEdgeStyle;rounded=0;orthogonalLoop=1;jettySize=auto;html=1;exitX=0.5;exitY=0;exitDx=0;exitDy=0;entryX=0.45;entryY=1.013;entryDx=0;entryDy=0;entryPerimeter=0;" edge="1" parent="1" source="wM4qlZ9RKRB5zYmjTJwk-3" target="wM4qlZ9RKRB5zYmjTJwk-1">
          <mxGeometry relative="1" as="geometry" />
        </mxCell>
        <mxCell id="wM4qlZ9RKRB5zYmjTJwk-11" value="" style="edgeStyle=orthogonalEdgeStyle;rounded=0;orthogonalLoop=1;jettySize=auto;html=1;" edge="1" parent="1" source="wM4qlZ9RKRB5zYmjTJwk-3" target="wM4qlZ9RKRB5zYmjTJwk-10">
          <mxGeometry relative="1" as="geometry" />
        </mxCell>
        <mxCell id="wM4qlZ9RKRB5zYmjTJwk-3" value="打开mapper后思考到注意点" style="ellipse;whiteSpace=wrap;html=1;" vertex="1" parent="1">
          <mxGeometry x="90" y="460" width="120" height="80" as="geometry" />
        </mxCell>
        <mxCell id="wM4qlZ9RKRB5zYmjTJwk-7" style="edgeStyle=orthogonalEdgeStyle;rounded=0;orthogonalLoop=1;jettySize=auto;html=1;exitX=0.5;exitY=0;exitDx=0;exitDy=0;entryX=1;entryY=0.5;entryDx=0;entryDy=0;" edge="1" parent="1" source="wM4qlZ9RKRB5zYmjTJwk-4" target="wM4qlZ9RKRB5zYmjTJwk-2">
          <mxGeometry relative="1" as="geometry" />
        </mxCell>
        <mxCell id="wM4qlZ9RKRB5zYmjTJwk-4" value="分析实现细节并归类到meta" style="ellipse;whiteSpace=wrap;html=1;" vertex="1" parent="1">
          <mxGeometry x="550" y="340" width="120" height="80" as="geometry" />
        </mxCell>
        <mxCell id="wM4qlZ9RKRB5zYmjTJwk-10" value="xml特性" style="ellipse;whiteSpace=wrap;html=1;" vertex="1" parent="1">
          <mxGeometry x="330" y="460" width="120" height="80" as="geometry" />
        </mxCell>
        <mxCell id="wM4qlZ9RKRB5zYmjTJwk-12" value="日常积累" style="text;html=1;strokeColor=none;fillColor=none;align=center;verticalAlign=middle;whiteSpace=wrap;rounded=0;" vertex="1" parent="1">
          <mxGeometry x="470" y="360" width="60" height="30" as="geometry" />
        </mxCell>
        <mxCell id="wM4qlZ9RKRB5zYmjTJwk-13" value="需要" style="ellipse;whiteSpace=wrap;html=1;" vertex="1" parent="1">
          <mxGeometry x="-70" y="370" width="120" height="80" as="geometry" />
        </mxCell>
        <mxCell id="wM4qlZ9RKRB5zYmjTJwk-14" value="" style="endArrow=classic;html=1;rounded=0;entryX=0.017;entryY=0.65;entryDx=0;entryDy=0;entryPerimeter=0;" edge="1" parent="1" target="wM4qlZ9RKRB5zYmjTJwk-2">
          <mxGeometry width="50" height="50" relative="1" as="geometry">
            <mxPoint x="20" y="370" as="sourcePoint" />
            <mxPoint x="80" y="330" as="targetPoint" />
          </mxGeometry>
        </mxCell>
        <mxCell id="wM4qlZ9RKRB5zYmjTJwk-15" value="" style="endArrow=classic;html=1;rounded=0;entryX=0;entryY=0.5;entryDx=0;entryDy=0;exitX=0.75;exitY=1;exitDx=0;exitDy=0;exitPerimeter=0;" edge="1" parent="1" source="wM4qlZ9RKRB5zYmjTJwk-13" target="wM4qlZ9RKRB5zYmjTJwk-3">
          <mxGeometry width="50" height="50" relative="1" as="geometry">
            <mxPoint x="-10" y="480" as="sourcePoint" />
            <mxPoint x="40" y="430" as="targetPoint" />
          </mxGeometry>
        </mxCell>
      </root>
    </mxGraphModel>
  </diagram>
</mxfile>
